<?xml version="1.0" encoding="iso-8859-1"?>
<!-- Uploaded to: SVG Repo, www.svgrepo.com, Generator: SVG Repo Mixer Tools -->
<svg version="1.1" id="Layer_1" xmlns="http://www.w3.org/2000/svg" xmlns:xlink="http://www.w3.org/1999/xlink" 
	 viewBox="0 0 512 512" xml:space="preserve">
<g>
	<path style="fill:#2D2D2D;" d="M343.976,512h-256c-8.448,0-15.36-6.912-15.36-15.36V15.36C72.616,6.912,79.528,0,87.976,0h256
		c8.448,0,15.36,6.912,15.36,15.36v481.28C359.336,505.088,352.424,512,343.976,512z"/>
	<rect x="91.976" y="44.96" style="fill:#2D2D2D;" width="248" height="401.6"/>
</g>
<path style="fill:#666666;" d="M335.976,48.96v393.6h-240V48.96H335.976 M343.976,40.96h-256v409.6h256V40.96L343.976,40.96z"/>
<g>
	<path style="fill:#999999;" d="M246.696,25.76h-61.44c-2.816,0-5.12-2.304-5.12-5.12l0,0c0-2.816,2.304-5.12,5.12-5.12h61.44
		c2.816,0,5.12,2.304,5.12,5.12l0,0C251.816,23.456,249.512,25.76,246.696,25.76z"/>
	<path style="fill:#999999;" d="M246.696,481.28h-61.44c-2.816,0-5.12-2.304-5.12-5.12l0,0c0-2.816,2.304-5.12,5.12-5.12h61.44
		c2.816,0,5.12,2.304,5.12,5.12l0,0C251.816,478.976,249.512,481.28,246.696,481.28z"/>
</g>
<polygon style="fill:#DB2B42;" points="278.912,114.16 336.864,170.992 197.024,170.992 197.024,224.008 336.864,224.008 
	278.912,280.848 315.832,318.688 439.384,197.504 315.832,76.32 "/>
<polygon style="fill:#FFFFFF;" points="218.608,385.568 182.016,349.68 270.32,349.68 270.32,316.2 182.008,316.2 218.608,280.304 
	195.296,256.416 117.272,332.936 195.296,409.456 "/>
</svg>